<mxfile host="app.diagrams.net" modified="2022-09-07T22:18:56.499Z" agent="5.0 (Windows NT 10.0; Win64; x64) AppleWebKit/537.36 (KHTML, like Gecko) Chrome/105.0.0.0 Safari/537.36 Edg/105.0.1343.27" etag="ymayBVUFkSuTmTJbjLZd" version="20.3.0" type="github">
  <diagram id="bubucsg4fapxkxTaHrGs" name="Página-1">
    <mxGraphModel dx="868" dy="482" grid="1" gridSize="10" guides="1" tooltips="1" connect="1" arrows="1" fold="1" page="1" pageScale="1" pageWidth="827" pageHeight="1169" math="0" shadow="0">
      <root>
        <mxCell id="0" />
        <mxCell id="1" parent="0" />
        <mxCell id="aqu73lazLAhFjTHAh4JK-11" style="edgeStyle=orthogonalEdgeStyle;rounded=0;orthogonalLoop=1;jettySize=auto;html=1;entryX=0;entryY=0.5;entryDx=0;entryDy=0;" edge="1" parent="1" source="aqu73lazLAhFjTHAh4JK-1" target="aqu73lazLAhFjTHAh4JK-2">
          <mxGeometry relative="1" as="geometry" />
        </mxCell>
        <mxCell id="aqu73lazLAhFjTHAh4JK-1" value="Cliente" style="rounded=0;whiteSpace=wrap;html=1;" vertex="1" parent="1">
          <mxGeometry x="50" y="60" width="120" height="60" as="geometry" />
        </mxCell>
        <mxCell id="aqu73lazLAhFjTHAh4JK-32" style="edgeStyle=orthogonalEdgeStyle;rounded=0;orthogonalLoop=1;jettySize=auto;html=1;entryX=0.5;entryY=0;entryDx=0;entryDy=0;" edge="1" parent="1" source="aqu73lazLAhFjTHAh4JK-2" target="aqu73lazLAhFjTHAh4JK-4">
          <mxGeometry relative="1" as="geometry" />
        </mxCell>
        <mxCell id="aqu73lazLAhFjTHAh4JK-2" value="Pedido" style="rounded=0;whiteSpace=wrap;html=1;" vertex="1" parent="1">
          <mxGeometry x="260" y="60" width="120" height="60" as="geometry" />
        </mxCell>
        <mxCell id="aqu73lazLAhFjTHAh4JK-4" value="Ordem de serviço" style="rounded=0;whiteSpace=wrap;html=1;" vertex="1" parent="1">
          <mxGeometry x="470" y="140" width="120" height="70" as="geometry" />
        </mxCell>
        <mxCell id="aqu73lazLAhFjTHAh4JK-6" style="edgeStyle=orthogonalEdgeStyle;rounded=0;orthogonalLoop=1;jettySize=auto;html=1;exitX=0;exitY=1;exitDx=0;exitDy=0;entryX=0;entryY=0.5;entryDx=0;entryDy=0;" edge="1" parent="1" source="aqu73lazLAhFjTHAh4JK-5" target="aqu73lazLAhFjTHAh4JK-1">
          <mxGeometry relative="1" as="geometry" />
        </mxCell>
        <mxCell id="aqu73lazLAhFjTHAh4JK-5" value="Nome" style="ellipse;whiteSpace=wrap;html=1;fontStyle=4" vertex="1" parent="1">
          <mxGeometry x="20" y="10" width="70" height="40" as="geometry" />
        </mxCell>
        <mxCell id="aqu73lazLAhFjTHAh4JK-8" style="edgeStyle=orthogonalEdgeStyle;rounded=0;orthogonalLoop=1;jettySize=auto;html=1;exitX=0;exitY=1;exitDx=0;exitDy=0;entryX=0.5;entryY=0;entryDx=0;entryDy=0;" edge="1" parent="1" source="aqu73lazLAhFjTHAh4JK-7" target="aqu73lazLAhFjTHAh4JK-1">
          <mxGeometry relative="1" as="geometry" />
        </mxCell>
        <mxCell id="aqu73lazLAhFjTHAh4JK-7" value="ENDEREÇO" style="ellipse;whiteSpace=wrap;html=1;fontStyle=0" vertex="1" parent="1">
          <mxGeometry x="100" width="100" height="45" as="geometry" />
        </mxCell>
        <mxCell id="aqu73lazLAhFjTHAh4JK-10" style="edgeStyle=orthogonalEdgeStyle;rounded=0;orthogonalLoop=1;jettySize=auto;html=1;exitX=1;exitY=0.5;exitDx=0;exitDy=0;entryX=0.5;entryY=1;entryDx=0;entryDy=0;" edge="1" parent="1" source="aqu73lazLAhFjTHAh4JK-9" target="aqu73lazLAhFjTHAh4JK-1">
          <mxGeometry relative="1" as="geometry" />
        </mxCell>
        <mxCell id="aqu73lazLAhFjTHAh4JK-9" value="CPF" style="ellipse;whiteSpace=wrap;html=1;fontStyle=4" vertex="1" parent="1">
          <mxGeometry y="130" width="70" height="40" as="geometry" />
        </mxCell>
        <mxCell id="aqu73lazLAhFjTHAh4JK-14" style="edgeStyle=orthogonalEdgeStyle;rounded=0;orthogonalLoop=1;jettySize=auto;html=1;exitX=0.5;exitY=1;exitDx=0;exitDy=0;entryX=0.108;entryY=-0.033;entryDx=0;entryDy=0;entryPerimeter=0;" edge="1" parent="1" source="aqu73lazLAhFjTHAh4JK-12" target="aqu73lazLAhFjTHAh4JK-2">
          <mxGeometry relative="1" as="geometry" />
        </mxCell>
        <mxCell id="aqu73lazLAhFjTHAh4JK-12" value="ID" style="ellipse;whiteSpace=wrap;html=1;fontStyle=4" vertex="1" parent="1">
          <mxGeometry x="240" y="5" width="70" height="40" as="geometry" />
        </mxCell>
        <mxCell id="aqu73lazLAhFjTHAh4JK-15" style="edgeStyle=orthogonalEdgeStyle;rounded=0;orthogonalLoop=1;jettySize=auto;html=1;entryX=1;entryY=0;entryDx=0;entryDy=0;" edge="1" parent="1" source="aqu73lazLAhFjTHAh4JK-13" target="aqu73lazLAhFjTHAh4JK-2">
          <mxGeometry relative="1" as="geometry" />
        </mxCell>
        <mxCell id="aqu73lazLAhFjTHAh4JK-13" value="TIPO" style="ellipse;whiteSpace=wrap;html=1;fontStyle=0" vertex="1" parent="1">
          <mxGeometry x="330" width="100" height="40" as="geometry" />
        </mxCell>
        <mxCell id="aqu73lazLAhFjTHAh4JK-17" value="Responsavel" style="shape=ext;double=1;rounded=0;whiteSpace=wrap;html=1;" vertex="1" parent="1">
          <mxGeometry x="260" y="250" width="120" height="70" as="geometry" />
        </mxCell>
        <mxCell id="aqu73lazLAhFjTHAh4JK-22" style="edgeStyle=orthogonalEdgeStyle;rounded=0;orthogonalLoop=1;jettySize=auto;html=1;entryX=0;entryY=0.75;entryDx=0;entryDy=0;" edge="1" parent="1" source="aqu73lazLAhFjTHAh4JK-18" target="aqu73lazLAhFjTHAh4JK-17">
          <mxGeometry relative="1" as="geometry">
            <Array as="points">
              <mxPoint x="240" y="303" />
            </Array>
          </mxGeometry>
        </mxCell>
        <mxCell id="aqu73lazLAhFjTHAh4JK-18" value="Nome" style="ellipse;whiteSpace=wrap;html=1;fontStyle=4" vertex="1" parent="1">
          <mxGeometry x="160" y="280" width="60" height="40" as="geometry" />
        </mxCell>
        <mxCell id="aqu73lazLAhFjTHAh4JK-23" style="edgeStyle=orthogonalEdgeStyle;rounded=0;orthogonalLoop=1;jettySize=auto;html=1;entryX=0.575;entryY=1.057;entryDx=0;entryDy=0;entryPerimeter=0;" edge="1" parent="1" source="aqu73lazLAhFjTHAh4JK-19" target="aqu73lazLAhFjTHAh4JK-17">
          <mxGeometry relative="1" as="geometry">
            <Array as="points">
              <mxPoint x="329" y="350" />
            </Array>
          </mxGeometry>
        </mxCell>
        <mxCell id="aqu73lazLAhFjTHAh4JK-19" value="CPF" style="ellipse;whiteSpace=wrap;html=1;fontStyle=4" vertex="1" parent="1">
          <mxGeometry x="190" y="330" width="70" height="40" as="geometry" />
        </mxCell>
        <mxCell id="aqu73lazLAhFjTHAh4JK-31" value="" style="shape=link;html=1;rounded=0;entryX=0.5;entryY=0;entryDx=0;entryDy=0;exitX=0.5;exitY=1;exitDx=0;exitDy=0;" edge="1" parent="1" source="aqu73lazLAhFjTHAh4JK-2" target="aqu73lazLAhFjTHAh4JK-17">
          <mxGeometry width="100" relative="1" as="geometry">
            <mxPoint x="320" y="190" as="sourcePoint" />
            <mxPoint x="420" y="190" as="targetPoint" />
          </mxGeometry>
        </mxCell>
        <mxCell id="aqu73lazLAhFjTHAh4JK-26" value="Analise" style="rhombus;whiteSpace=wrap;html=1;rounded=0;" vertex="1" parent="1">
          <mxGeometry x="280" y="150" width="80" height="80" as="geometry" />
        </mxCell>
      </root>
    </mxGraphModel>
  </diagram>
</mxfile>
